# xmcd
#
# Track frame offsets:
#	150
#	15677
#	34037
#	47944
#	61806
#	77306
#	93174
#	111466
#	124991
#	137995
#
# Disc length: 2011 seconds
#
# Revision: 1
# Processed by: cddbd v1.4PL0 Copyright (c) Steve Scherf et al.
# Submitted via: audiograbber 1.81.02
#
DISCID=8107d90a
DTITLE=Gilbert Bécaud - Le retour
DYEAR=1900
DGENRE=
TTITLE0=Gilbert Bécaud - Le retour
TTITLE1=Gilbert Bécaud - La révolutionne
TTITLE2=Gilbert Bécaud - Comme Rambo
TTITLE3=Gilbert Bécaud - Ma chanson lilas
TTITLE4=Gilbert Bécaud - Marie-Pierre
TTITLE5=Gilbert Bécaud - La fille de la pub
TTITLE6=Gilbert Bécaud - Le ciel
TTITLE7=Gilbert Bécaud - Les cartes ont changés
TTITLE8=Gilbert Bécaud - Tu le regretteras
TTITLE9=Gilbert Bécaud - Maria est de retour
EXTD=
EXTT0=
EXTT1=
EXTT2=
EXTT3=
EXTT4=
EXTT5=
EXTT6=
EXTT7=
EXTT8=
EXTT9=
PLAYORDER=
